<?xml version="1.0" standalone="no"?><!DOCTYPE svg PUBLIC "-//W3C//DTD SVG 1.1//EN" "http://www.w3.org/Graphics/SVG/1.1/DTD/svg11.dtd"><svg t="1615876998076" class="icon" viewBox="0 0 1024 1024" version="1.1" xmlns="http://www.w3.org/2000/svg" p-id="940" xmlns:xlink="http://www.w3.org/1999/xlink" width="200" height="200"><defs><style type="text/css"></style></defs><path d="M791.893333 0H232.106667C105.813333 0 0 105.813333 0 232.106667v559.786666C0 918.186667 105.813333 1024 232.106667 1024h559.786666c129.706667 0 232.106667-105.813333 232.106667-232.106667V232.106667C1024 105.813333 918.186667 0 791.893333 0z m-116.053333 508.586667l-273.066667 170.666666c-3.413333 3.413333-6.826667 3.413333-10.24 3.413334-3.413333 0-6.826667 0-6.826666-3.413334-6.826667-3.413333-10.24-10.24-10.24-13.653333v-307.2c0-6.826667 3.413333-10.24 6.826666-13.653333 3.413333-3.413333 10.24-3.413333 17.066667 0l273.066667 136.533333c6.826667 3.413333 10.24 6.826667 10.24 13.653333s-3.413333 10.24-6.826667 13.653334z" fill="#DFDFDF" p-id="941"></path></svg>